# xmcd
#
# Track frame offsets:
#	150
#	16850
#	34028
#	52808
#	78125
#	95333
#	111660
#	131263
#	150168
#	169798
#	185843
#	206345
#
# Disc length: 3003 seconds
#
# Revision: 0
# Processed by: cddbd v1.5.2PL0 Copyright (c) Steve Scherf et al.
# Submitted via: EZCDAudioConverter 7.1.5.1
#
DISCID=880bb90c
DTITLE=森進一  - 森進一 12CD-1009
DYEAR=2008
DGENRE=
TTITLE0=おふくろさん
TTITLE1=女のためいき
TTITLE2=命かれても
TTITLE3=盛り場ブルース
TTITLE4=花と蝶
TTITLE5=ひとり酒場で
TTITLE6=年上の女
TTITLE7=港町ブルース
TTITLE8=襟裳岬
TTITLE9=新宿.みなと町
TTITLE10=冬のリヴィエラ
TTITLE11=紐育物語
EXTD=
EXTT0=
EXTT1=
EXTT2=
EXTT3=
EXTT4=
EXTT5=
EXTT6=
EXTT7=
EXTT8=
EXTT9=
EXTT10=
EXTT11=
PLAYORDER=
